<svg width="357" height="355" viewBox="0 0 357 355" fill="none" xmlns="http://www.w3.org/2000/svg">
<ellipse cx="178.5" cy="177.5" rx="178.5" ry="177.5" fill="#28A8E9"/>
<path d="M246.472 98.5258C248.095 98.9316 249.501 99.9447 250.399 101.356V101.356C250.632 101.723 250.829 102.112 250.985 102.518L251.188 103.046C251.725 104.442 252 105.925 252 107.42L252 112.658L251 122.658L245.5 158.658L236 215.657L229.589 248.325C227.653 258.187 216.264 262.858 207.962 257.194L150.85 218.237C150.284 217.851 149.747 217.424 149.244 216.959L144.79 212.848C143.941 212.064 143.277 211.1 142.848 210.027V210.027C141.994 207.891 142.13 205.487 143.221 203.462L144.3 201.458C144.765 200.594 145.329 199.787 145.981 199.054L149 195.657L203.288 143.837C203.752 143.394 204.072 142.822 204.206 142.195V142.195C204.749 139.661 202.207 137.569 199.824 138.59L198.812 139.024C198.604 139.113 198.405 139.22 198.217 139.345L127.5 186.157L117.743 192.096C116.587 192.8 115.335 193.332 114.027 193.677L109.02 194.994C107.354 195.433 105.622 195.56 103.911 195.37L98.7076 194.792C97.9041 194.702 97.1098 194.544 96.3336 194.317L91.5 192.907L85.5 191.157L75.5 188.157L63 184.157V184.157C56.1262 181.916 56.3431 172.118 63.3094 170.182L66.4306 169.315C66.8097 169.21 67.1808 169.078 67.5411 168.92L116 147.657L192.5 114.658L225.5 102.158L234 99.1579L238.5 98.1578L241.091 97.87C242.354 97.7297 243.631 97.8156 244.864 98.1237L246.472 98.5258Z" fill="white"/>
</svg>
